<svg xmlns="http://www.w3.org/2000/svg" width="64" height="64" viewBox="0 0 64 64" fill="none">
<path d="M11.7789 45.1611L6.30029 36.3206L11.0816 27.6171L11.7789 16.9961L8.74076 1.45679L13.4349 3.72294L19.1875 7.19687L25.2388 10.8825C25.2388 10.8825 28.7625 9.59998 31.9003 9.72449C35.5859 9.87391 38.3625 11.0443 38.3625 11.0443L43.0941 7.76963L49.4443 4.76885L54.1882 1.34473L51.7976 12.7751L52.8559 24.7159L56.8155 36.0965L49.7306 46.1696L44.912 53.9517L37.0925 60.3642L32.0124 61.3727L23.7696 58.7953L18.0295 52.5945L11.7789 45.1611Z" fill="white"/>
<path d="M57.8739 30.4436C57.7743 26.0358 54.0513 25.7245 54.0513 25.7245C55.533 24.4669 57.4879 24.3922 57.4879 24.3922C56.8404 21.8521 54.2754 20.5198 54.2754 20.5198C54.4497 18.2163 53.3167 16.7969 53.3167 16.7969C55.1968 16.4233 55.9937 15.1409 55.9937 15.1409C55.4832 14.3689 53.9019 13.958 53.9019 13.958C56.4046 12.9494 55.5704 10.1977 55.5704 10.1977C55.4583 10.2226 55.3338 10.2599 55.2217 10.3222C55.9315 7.64514 56.0311 1.85525 54.3626 0C51.6233 0.622568 48.4606 2.97588 46.2069 5.22957C46.2069 5.22957 41.0272 7.17198 37.5159 10.3595C37.5159 10.3595 33.8303 9.45058 30.9042 9.45058C27.9782 9.45058 24.2925 10.3595 24.2925 10.3595C20.7688 7.17198 15.6015 5.22957 15.6015 5.22957C13.3478 2.97588 10.1852 0.622568 7.44585 0C5.78982 1.85525 5.87698 7.64514 6.58671 10.3222C6.47465 10.2724 6.35013 10.2226 6.23807 10.1977C6.23807 10.1977 5.40383 12.937 7.90655 13.958C7.90655 13.958 6.32523 14.3689 5.81472 15.1409C5.81472 15.1409 6.61161 16.4233 8.49177 16.7969C8.49177 16.7969 7.34624 18.2039 7.53301 20.5198C7.53301 20.5198 4.96803 21.8521 4.32056 24.3922C4.32056 24.3922 6.27543 24.4669 7.75714 25.7245C7.75714 25.7245 4.03418 26.0358 3.93457 30.4436C3.93457 30.4436 4.84352 29.4848 5.91434 29.2482C5.91434 29.2482 3.85986 30.4436 4.35792 34.2537C4.35792 34.2537 3.16258 37.9393 5.31667 42.3969C5.31667 42.3969 5.00539 46.1697 6.28788 48.0623C6.28788 48.0623 5.82718 49.0335 5.51589 49.3447C5.51589 49.3447 7.49566 49.5813 9.38827 47.4148C9.38827 47.4148 9.21395 52.0591 12.0529 53.2669C12.0529 53.2669 12.028 50.4654 13.161 49.656C13.161 49.656 14.568 53.4288 16.3984 54.6366C16.3984 54.6366 14.9665 54.5619 14.1198 54.786C14.1198 54.786 16.6723 56.056 20.7813 58.6086C23.4334 60.2521 27.5424 63.7136 30.9167 63.9876C34.2785 63.7136 38.3875 60.2646 41.0521 58.6086C45.1486 56.056 47.7136 54.786 47.7136 54.786C46.8669 54.5494 45.435 54.6366 45.435 54.6366C47.2529 53.4288 48.6723 49.656 48.6723 49.656C49.8054 50.4778 49.7805 53.2669 49.7805 53.2669C52.6318 52.0591 52.4451 47.4148 52.4451 47.4148C54.3377 49.5689 56.3174 49.3447 56.3174 49.3447C56.0062 49.0335 55.5455 48.0623 55.5455 48.0623C56.828 46.1697 56.5167 42.3969 56.5167 42.3969C58.6708 37.9393 57.4754 34.2537 57.4754 34.2537C57.9735 30.4436 55.919 29.2482 55.919 29.2482C56.9774 29.4848 57.8739 30.4436 57.8739 30.4436ZM48.4855 33.6062C50.8513 34.6521 51.6606 37.5533 51.6606 37.5533C48.7346 35.7354 45.1735 36.856 45.1735 36.856C48.1992 37.5782 49.6062 39.3712 49.6062 39.3712C47.5019 38.1634 44.7626 38.8856 44.7626 38.8856C47.4272 41.1891 46.2443 45.323 46.2443 45.323C45.6342 40.3424 39.7571 39.5829 39.7571 39.5829C41.5999 40.4296 42.6708 43.4926 42.6708 43.4926C42.6708 43.4926 39.4334 40.3424 36.9431 41.1144C36.9431 41.1144 34.8638 41.7868 34.6023 43.9533C34.6023 43.9533 37.6529 46.8171 38.3501 48.6973C38.7735 49.8428 39.2591 51.2249 40.5167 52.9681C41.7743 54.7113 39.6451 57.0148 37.0054 57.9486C35.0007 58.6459 32.5353 58.0731 31.4645 57.849C31.477 57.5004 31.6139 55.3339 32.1992 54.7486C32.8342 54.1136 33.8303 54.1883 34.1167 54.7486C34.1167 54.7486 35.6606 54.5619 35.9221 52.9183C36.196 51.2872 35.835 48.8965 30.9042 48.8965C25.9735 48.8965 25.6248 51.2872 25.8988 52.9183C26.1727 54.5494 27.7042 54.7486 27.7042 54.7486C27.9906 54.1883 28.9992 54.1136 29.6217 54.7486C30.2069 55.3339 30.3439 57.5004 30.3564 57.849C29.2855 58.0607 26.8202 58.6459 24.8155 57.9486C22.1758 57.0272 20.0466 54.7113 21.3042 52.9681C22.5618 51.2249 23.0474 49.8428 23.4708 48.6973C24.168 46.8171 27.2186 43.9533 27.2186 43.9533C26.9447 41.7868 24.8778 41.1144 24.8778 41.1144C22.375 40.33 19.1501 43.4926 19.1501 43.4926C19.1501 43.4926 20.2085 40.4296 22.0638 39.5829C22.0638 39.5829 16.1867 40.3549 15.5766 45.323C15.5766 45.323 14.3937 41.1891 17.0583 38.8856C17.0583 38.8856 14.319 38.1634 12.2147 39.3712C12.2147 39.3712 13.6217 37.5782 16.6474 36.856C16.6474 36.856 13.0863 35.723 10.1603 37.5533C10.1603 37.5533 10.982 34.6521 13.3353 33.6062C13.3353 33.6062 9.74935 34.0918 7.64507 36.1961C7.64507 36.1961 9.40072 30.5432 15.5019 29.5471C15.5019 29.5471 15.9875 29.9455 16.8093 30.5307C16.9338 31.2778 17.4567 33.6934 19.1128 35.1128C21.0925 36.8062 23.0723 35.8973 25.1392 36.8311C26.6708 37.5284 27.2311 39.0475 27.2311 39.0475C27.2311 39.0475 27.3182 36.2957 25.4132 34.9385C25.4132 34.9385 21.7774 32.3113 20.5198 29.7712C18.6894 26.0732 15.9128 25.5004 14.9914 25.214C12.7626 24.5043 12.4139 21.2545 13.3603 18.7393C14.8669 14.7549 19.1377 14.1696 19.1377 14.1696C19.1377 14.1696 18.0669 13.5844 16.7346 13.5844C16.7346 13.5844 13.796 6.52451 9.26375 2.87627C10.4715 3.24981 12.3641 4.18366 14.8171 6.46226C14.8171 6.46226 20.2832 8.193 24.3174 11.7541C24.3174 11.7541 27.6046 10.1354 30.9291 10.1354C34.2536 10.1354 37.5408 11.7541 37.5408 11.7541C41.5626 8.193 47.0412 6.46226 47.0412 6.46226C49.4941 4.18366 51.3867 3.24981 52.5945 2.87627C48.0622 6.52451 45.1237 13.5844 45.1237 13.5844C43.7914 13.5844 42.7206 14.1696 42.7206 14.1696C42.7206 14.1696 46.9914 14.7549 48.498 18.7393C49.4443 21.242 49.0957 24.4918 46.8669 25.214C45.9455 25.5004 43.1813 26.0732 41.3385 29.7712C40.0809 32.3113 36.4451 34.9385 36.4451 34.9385C34.54 36.3082 34.6272 39.0475 34.6272 39.0475C34.6272 39.0475 35.1875 37.5284 36.719 36.8311C38.7735 35.8973 40.7532 36.8062 42.7455 35.1128C44.4015 33.6934 44.9244 31.2778 45.049 30.5307C45.8708 29.9455 46.3564 29.5471 46.3564 29.5471C52.4575 30.5432 54.2132 36.1961 54.2132 36.1961C52.084 34.0918 48.4855 33.6062 48.4855 33.6062ZM18.3408 31.5642C19.9968 33.0833 23.7571 34.7891 23.7571 34.7891C23.7571 34.7891 21.8023 36.221 19.9719 35.0755C18.4404 34.1043 18.3034 32.3486 18.3408 31.5642ZM41.849 35.063C40.0186 36.2086 38.0638 34.7767 38.0638 34.7767C38.0638 34.7767 41.8241 33.0708 43.4801 31.5518C43.5175 32.3486 43.3805 34.1043 41.849 35.063Z" fill="#00CCFF"/>
<path d="M60.0653 30.4436C59.9657 26.0358 56.2427 25.7245 56.2427 25.7245C57.7244 24.4669 59.6793 24.3922 59.6793 24.3922C59.0318 21.8521 56.4668 20.5198 56.4668 20.5198C56.6412 18.2163 55.5081 16.7969 55.5081 16.7969C57.3882 16.4233 58.1851 15.1409 58.1851 15.1409C57.6746 14.3689 56.0933 13.958 56.0933 13.958C58.596 12.9494 57.7618 10.1977 57.7618 10.1977C57.6497 10.2226 57.5252 10.2599 57.4131 10.3222C58.1229 7.64514 58.2225 1.85525 56.554 0C53.8147 0.622568 50.652 2.97588 48.3983 5.22957C48.3983 5.22957 43.2186 7.17198 39.7073 10.3595C39.7073 10.3595 36.0217 9.45058 33.0956 9.45058C30.1696 9.45058 26.484 10.3595 26.484 10.3595C22.9602 7.17198 17.7929 5.22957 17.7929 5.22957C15.5392 2.97588 12.3766 0.622568 9.63726 0C7.98123 1.85525 8.06839 7.64514 8.77812 10.3222C8.66605 10.2724 8.54154 10.2226 8.42948 10.1977C8.42948 10.1977 7.59524 12.937 10.098 13.958C10.098 13.958 8.51664 14.3689 8.00613 15.1409C8.00613 15.1409 8.80302 16.4233 10.6832 16.7969C10.6832 16.7969 9.53765 18.2039 9.72442 20.5198C9.72442 20.5198 7.15944 21.8521 6.51197 24.3922C6.51197 24.3922 8.46683 24.4669 9.94854 25.7245C9.94854 25.7245 6.22559 26.0358 6.12598 30.4436C6.12598 30.4436 7.03493 29.4848 8.10574 29.2482C8.10574 29.2482 6.05127 30.4436 6.54932 34.2537C6.54932 34.2537 5.35399 37.9393 7.50808 42.3969C7.50808 42.3969 7.19679 46.1697 8.47929 48.0623C8.47929 48.0623 8.01858 49.0335 7.7073 49.3447C7.7073 49.3447 9.68707 49.5813 11.5797 47.4148C11.5797 47.4148 11.4054 52.0591 14.2443 53.2669C14.2443 53.2669 14.2194 50.4654 15.3524 49.656C15.3524 49.656 16.7594 53.4288 18.5898 54.6366C18.5898 54.6366 17.1579 54.5619 16.3112 54.786C16.3112 54.786 18.8637 56.056 22.9727 58.6086C25.6248 60.2521 29.7338 63.7136 33.1081 63.9876C36.4699 63.7136 40.5789 60.2646 43.2435 58.6086C47.34 56.056 49.905 54.786 49.905 54.786C49.0583 54.5494 47.6264 54.6366 47.6264 54.6366C49.4443 53.4288 50.8637 49.656 50.8637 49.656C51.9968 50.4778 51.9719 53.2669 51.9719 53.2669C54.8233 52.0591 54.6365 47.4148 54.6365 47.4148C56.5291 49.5689 58.5089 49.3447 58.5089 49.3447C58.1976 49.0335 57.7369 48.0623 57.7369 48.0623C59.0194 46.1697 58.7081 42.3969 58.7081 42.3969C60.8622 37.9393 59.6668 34.2537 59.6668 34.2537C60.1649 30.4436 58.1104 29.2482 58.1104 29.2482C59.1563 29.4848 60.0653 30.4436 60.0653 30.4436ZM50.6769 33.6062C53.0427 34.6521 53.852 37.5533 53.852 37.5533C50.926 35.7354 47.3649 36.856 47.3649 36.856C50.3906 37.5782 51.7976 39.3712 51.7976 39.3712C49.6933 38.1634 46.954 38.8856 46.954 38.8856C49.6186 41.2016 48.4357 45.323 48.4357 45.323C47.8256 40.3424 41.9485 39.5829 41.9485 39.5829C43.7913 40.4296 44.8622 43.4926 44.8622 43.4926C44.8622 43.4926 41.6248 40.3424 39.1345 41.1144C39.1345 41.1144 37.0552 41.7868 36.7937 43.9533C36.7937 43.9533 39.8443 46.8171 40.5415 48.6973C40.9649 49.8428 41.4505 51.2249 42.7081 52.9681C43.9657 54.7113 41.8365 57.0148 39.1968 57.9486C37.1921 58.6459 34.7268 58.0731 33.6559 57.849C33.6684 57.5004 33.8054 55.3339 34.3906 54.7486C35.0256 54.1136 36.0217 54.1883 36.3081 54.7486C36.3081 54.7486 37.852 54.5619 38.1135 52.9183C38.3875 51.2872 38.0264 48.8965 33.0956 48.8965C28.1649 48.8965 27.8162 51.2872 28.0777 52.9183C28.3392 54.5494 29.8832 54.7486 29.8832 54.7486C30.1696 54.1883 31.1781 54.1136 31.8007 54.7486C32.3859 55.3339 32.5229 57.5004 32.5353 57.849C31.4645 58.0607 28.9991 58.6459 26.9945 57.9486C24.3548 57.0272 22.2256 54.7113 23.4832 52.9681C24.7408 51.2249 25.2264 49.8428 25.6497 48.6973C26.347 46.8171 29.3976 43.9533 29.3976 43.9533C29.1236 41.7868 27.0567 41.1144 27.0567 41.1144C24.554 40.33 21.3291 43.4926 21.3291 43.4926C21.3291 43.4926 22.3875 40.4296 24.2427 39.5829C24.2427 39.5829 18.3657 40.3549 17.7555 45.323C17.7555 45.323 16.5727 41.1891 19.2373 38.8856C19.2373 38.8856 16.498 38.1634 14.3937 39.3712C14.3937 39.3712 15.8007 37.5782 18.8264 36.856C18.8264 36.856 15.2653 35.723 12.3392 37.5533C12.3392 37.5533 13.161 34.6521 15.5143 33.6062C15.5143 33.6062 11.9283 34.0918 9.82403 36.1961C9.82403 36.1961 11.5797 30.5432 17.6808 29.5471C17.6808 29.5471 18.1664 29.9455 18.9882 30.5307C19.1127 31.2778 19.6357 33.6934 21.2917 35.1128C23.2715 36.8062 25.2513 35.8973 27.3182 36.8311C28.8497 37.5284 29.41 39.0475 29.41 39.0475C29.41 39.0475 29.4972 36.2957 27.5921 34.9385C27.5921 34.9385 23.9563 32.3113 22.6987 29.7712C20.8684 26.0732 18.0917 25.5004 17.1703 25.214C14.9415 24.5043 14.5929 21.2545 15.5392 18.7393C17.0458 14.7549 21.3166 14.1696 21.3166 14.1696C21.3166 14.1696 20.2458 13.5844 18.9135 13.5844C18.9135 13.5844 15.975 6.52451 11.4427 2.87627C12.6505 3.24981 14.5431 4.18366 16.996 6.46226C16.996 6.46226 22.4622 8.193 26.4964 11.7541C26.4964 11.7541 29.7836 10.1354 33.1081 10.1354C36.4326 10.1354 39.7197 11.7541 39.7197 11.7541C43.7415 8.193 49.2201 6.46226 49.2201 6.46226C51.6731 4.18366 53.5657 3.24981 54.7734 2.87627C50.2412 6.52451 47.3026 13.5844 47.3026 13.5844C45.9703 13.5844 44.8995 14.1696 44.8995 14.1696C44.8995 14.1696 49.1703 14.7549 50.6769 18.7393C51.6233 21.242 51.2746 24.4918 49.0458 25.214C48.1244 25.5004 45.3602 26.0732 43.5174 29.7712C42.2598 32.3113 38.624 34.9385 38.624 34.9385C36.719 36.3082 36.8061 39.0475 36.8061 39.0475C36.8061 39.0475 37.3664 37.5284 38.898 36.8311C40.9524 35.8973 42.9322 36.8062 44.9244 35.1128C46.5804 33.6934 47.1034 31.2778 47.2279 30.5307C48.0497 29.9455 48.5353 29.5471 48.5353 29.5471C54.6365 30.5432 56.3921 36.1961 56.3921 36.1961C54.2629 34.0918 50.6769 33.6062 50.6769 33.6062ZM20.5197 31.5642C22.1758 33.0833 25.9361 34.7891 25.9361 34.7891C25.9361 34.7891 23.9812 36.221 22.1509 35.0755C20.6194 34.1043 20.4824 32.3486 20.5197 31.5642ZM44.0279 35.063C42.1976 36.2086 40.2427 34.7767 40.2427 34.7767C40.2427 34.7767 44.003 33.0708 45.659 31.5518C45.6964 32.3486 45.5594 34.1043 44.0279 35.063Z" fill="#FF4AF7"/>
<path d="M38.4995 16.3237C38.4995 16.3237 35.7975 17.3074 33.8053 24.2552C32.996 27.0942 31.4645 27.9284 31.4645 27.9284C31.4645 27.9284 29.9329 27.0942 29.1236 24.2552C27.1314 17.3198 24.4294 16.3237 24.4294 16.3237C25.961 18.8265 26.1477 22.9354 26.7703 25.3261C27.2185 27.0194 28.7625 28.9494 29.8333 31.0537C31.0411 33.4444 31.4645 36.6319 31.4645 36.6319C31.4645 36.6319 31.8754 33.4444 33.0956 31.0537C34.1664 28.9494 35.7104 27.007 36.1586 25.3261C36.7812 22.9479 36.968 18.8265 38.4995 16.3237Z" fill="#00CCFF"/>
<path d="M39.5827 16.3237C39.5827 16.3237 36.8808 17.3074 34.8886 24.2552C34.0792 27.0942 32.5477 27.9284 32.5477 27.9284C32.5477 27.9284 31.0162 27.0942 30.2069 24.2552C28.2146 17.3198 25.5127 16.3237 25.5127 16.3237C27.0442 18.8265 27.231 22.9354 27.8536 25.3261C28.3018 27.0194 29.8458 28.9494 30.9166 31.0537C32.1244 33.4444 32.5477 36.6319 32.5477 36.6319C32.5477 36.6319 32.9586 33.4444 34.1788 31.0537C35.2497 28.9494 36.7936 27.007 37.2419 25.3261C37.8644 22.9479 38.0637 18.8265 39.5827 16.3237Z" fill="#FF4AF7"/>
<path d="M39.0349 16.3237C39.0349 16.3237 36.3329 17.3074 34.3407 24.2552C33.5314 27.0942 31.9999 27.9284 31.9999 27.9284C31.9999 27.9284 30.4683 27.0942 29.659 24.2552C27.6668 17.3198 24.9648 16.3237 24.9648 16.3237C26.4964 18.8265 26.6831 22.9354 27.3057 25.3261C27.7539 27.0194 29.2979 28.9494 30.3687 31.0537C31.5765 33.4444 31.9999 36.6319 31.9999 36.6319C31.9999 36.6319 32.4108 33.4444 33.631 31.0537C34.7018 28.9494 36.2458 27.007 36.694 25.3261C37.3166 22.9479 37.5158 18.8265 39.0349 16.3237Z" fill="black"/>
<path d="M58.9696 30.4436C58.87 26.0358 55.147 25.7245 55.147 25.7245C56.6287 24.4669 58.5836 24.3922 58.5836 24.3922C57.9361 21.8521 55.3711 20.5198 55.3711 20.5198C55.5455 18.2163 54.4124 16.7969 54.4124 16.7969C56.2925 16.4233 57.0894 15.1409 57.0894 15.1409C56.5789 14.3689 54.9976 13.958 54.9976 13.958C57.5003 12.9494 56.6661 10.1977 56.6661 10.1977C56.554 10.2226 56.4295 10.2599 56.3174 10.3222C57.0272 7.64514 57.1268 1.85525 55.4583 0C52.719 0.622568 49.5563 2.97588 47.3027 5.22957C47.3027 5.22957 42.1229 7.17198 38.6116 10.3595C38.6116 10.3595 34.926 9.45058 31.9999 9.45058C29.0739 9.45058 25.3883 10.3595 25.3883 10.3595C21.8645 7.17198 16.6972 5.22957 16.6972 5.22957C14.4435 2.97588 11.2809 0.622568 8.54156 0C6.88553 1.85525 6.97269 7.64514 7.68241 10.3222C7.57035 10.2724 7.44584 10.2226 7.33378 10.1977C7.33378 10.1977 6.49954 12.937 9.00226 13.958C9.00226 13.958 7.42094 14.3689 6.91043 15.1409C6.91043 15.1409 7.70732 16.4233 9.58747 16.7969C9.58747 16.7969 8.44195 18.2039 8.62872 20.5198C8.62872 20.5198 6.06374 21.8521 5.41627 24.3922C5.41627 24.3922 7.37113 24.4669 8.85284 25.7245C8.85284 25.7245 5.12988 26.0358 5.03027 30.4436C5.03027 30.4436 5.93922 29.4848 7.01004 29.2482C7.01004 29.2482 4.95557 30.4436 5.45362 34.2537C5.45362 34.2537 4.25829 37.9393 6.41238 42.3969C6.41238 42.3969 6.10109 46.1697 7.38358 48.0623C7.38358 48.0623 6.92288 49.0335 6.6116 49.3447C6.6116 49.3447 8.59136 49.5813 10.484 47.4148C10.484 47.4148 10.3097 52.0591 13.1486 53.2669C13.1486 53.2669 13.1237 50.4654 14.2567 49.656C14.2567 49.656 15.6637 53.4288 17.4941 54.6366C17.4941 54.6366 16.0622 54.5619 15.2155 54.786C15.2155 54.786 17.768 56.056 21.877 58.6086C24.5291 60.2521 28.6381 63.7136 32.0124 63.9876C35.3742 63.7136 39.4832 60.2646 42.1478 58.6086C46.2443 56.056 48.8093 54.786 48.8093 54.786C47.9626 54.5494 46.5307 54.6366 46.5307 54.6366C48.3486 53.4288 49.768 49.656 49.768 49.656C50.9011 50.4778 50.8762 53.2669 50.8762 53.2669C53.7275 52.0591 53.5408 47.4148 53.5408 47.4148C55.4334 49.5689 57.4132 49.3447 57.4132 49.3447C57.1019 49.0335 56.6412 48.0623 56.6412 48.0623C57.9237 46.1697 57.6124 42.3969 57.6124 42.3969C59.7665 37.9393 58.5711 34.2537 58.5711 34.2537C59.0692 30.4436 57.0147 29.2482 57.0147 29.2482C58.0606 29.4848 58.9696 30.4436 58.9696 30.4436ZM49.5812 33.6062C51.947 34.6521 52.7563 37.5533 52.7563 37.5533C49.8303 35.7354 46.2692 36.856 46.2692 36.856C49.2949 37.5782 50.7019 39.3712 50.7019 39.3712C48.5976 38.1634 45.8583 38.8856 45.8583 38.8856C48.5229 41.1891 47.34 45.323 47.34 45.323C46.7299 40.3424 40.8528 39.5829 40.8528 39.5829C42.6956 40.4296 43.7665 43.4926 43.7665 43.4926C43.7665 43.4926 40.5291 40.3424 38.0388 41.1144C38.0388 41.1144 35.9595 41.7868 35.698 43.9533C35.698 43.9533 38.7486 46.8171 39.4458 48.6973C39.8692 49.8428 40.3548 51.2249 41.6124 52.9681C42.87 54.7113 40.7408 57.0148 38.1011 57.9486C36.0964 58.6459 33.6311 58.0731 32.5602 57.849C32.5727 57.5004 32.7097 55.3339 33.2949 54.7486C33.9299 54.1136 34.926 54.1883 35.2124 54.7486C35.2124 54.7486 36.7563 54.5619 37.0178 52.9183C37.2918 51.2872 36.9307 48.8965 31.9999 48.8965C27.0692 48.8965 26.7205 51.2872 26.982 52.9183C27.256 54.5494 28.7875 54.7486 28.7875 54.7486C29.0739 54.1883 30.0824 54.1136 30.705 54.7486C31.2902 55.3339 31.4272 57.5004 31.4396 57.849C30.3688 58.0607 27.9034 58.6459 25.8988 57.9486C23.2591 57.0272 21.1299 54.7113 22.3875 52.9681C23.6451 51.2249 24.1307 49.8428 24.554 48.6973C25.2513 46.8171 28.3019 43.9533 28.3019 43.9533C28.0279 41.7868 25.961 41.1144 25.961 41.1144C23.4583 40.33 20.2334 43.4926 20.2334 43.4926C20.2334 43.4926 21.2918 40.4296 23.147 39.5829C23.147 39.5829 17.27 40.3549 16.6598 45.323C16.6598 45.323 15.477 41.1891 18.1416 38.8856C18.1416 38.8856 15.4023 38.1634 13.298 39.3712C13.298 39.3712 14.705 37.5782 17.7307 36.856C17.7307 36.856 14.1696 35.723 11.2435 37.5533C11.2435 37.5533 12.0653 34.6521 14.4186 33.6062C14.4186 33.6062 10.8326 34.0918 8.72833 36.1961C8.72833 36.1961 10.484 30.5432 16.5851 29.5471C16.5851 29.5471 17.0707 29.9455 17.8925 30.5307C18.017 31.2778 18.54 33.6934 20.196 35.1128C22.1758 36.8062 24.1556 35.8973 26.2225 36.8311C27.754 37.5284 28.3143 39.0475 28.3143 39.0475C28.3143 39.0475 28.4015 36.2957 26.4964 34.9385C26.4964 34.9385 22.8606 32.3113 21.603 29.7712C19.7727 26.0732 16.996 25.5004 16.0746 25.214C13.8458 24.5043 13.4972 21.2545 14.4435 18.7393C15.9501 14.7549 20.2209 14.1696 20.2209 14.1696C20.2209 14.1696 19.1501 13.5844 17.8178 13.5844C17.8178 13.5844 14.8793 6.52451 10.347 2.87627C11.5548 3.24981 13.4474 4.18366 15.9003 6.46226C15.9003 6.46226 21.3665 8.193 25.4007 11.7541C25.4007 11.7541 28.6879 10.1354 32.0124 10.1354C35.3369 10.1354 38.6241 11.7541 38.6241 11.7541C42.6458 8.193 48.1244 6.46226 48.1244 6.46226C50.5774 4.18366 52.47 3.24981 53.6777 2.87627C49.1454 6.52451 46.2069 13.5844 46.2069 13.5844C44.8746 13.5844 43.8038 14.1696 43.8038 14.1696C43.8038 14.1696 48.0746 14.7549 49.5812 18.7393C50.5276 21.242 50.1789 24.4918 47.9501 25.214C47.0287 25.5004 44.2645 26.0732 42.4217 29.7712C41.1641 32.3113 37.5283 34.9385 37.5283 34.9385C35.6233 36.3082 35.7104 39.0475 35.7104 39.0475C35.7104 39.0475 36.2707 37.5284 37.8023 36.8311C39.8567 35.8973 41.8365 36.8062 43.8287 35.1128C45.4847 33.6934 46.0077 31.2778 46.1322 30.5307C46.954 29.9455 47.4396 29.5471 47.4396 29.5471C53.5408 30.5432 55.2964 36.1961 55.2964 36.1961C53.1672 34.0918 49.5812 33.6062 49.5812 33.6062ZM19.424 31.5642C21.0801 33.0833 24.8404 34.7891 24.8404 34.7891C24.8404 34.7891 22.8855 36.221 21.0552 35.0755C19.5237 34.1043 19.3991 32.3486 19.424 31.5642ZM42.9322 35.063C41.1019 36.2086 39.147 34.7767 39.147 34.7767C39.147 34.7767 42.9073 33.0708 44.5633 31.5518C44.6007 32.3486 44.4762 34.1043 42.9322 35.063Z" fill="black"/>
<path d="M42.6084 35.0631C40.7781 36.2086 38.8232 34.7767 38.8232 34.7767C38.8232 34.7767 42.5835 33.0708 44.2396 31.5518C44.2769 32.3486 44.14 34.1043 42.6084 35.0631Z" fill="#00CCFF"/>
<path d="M24.5166 34.7769C24.5166 34.7769 22.5617 36.2088 20.7313 35.0633C19.1998 34.1045 19.0629 32.3489 19.1002 31.5645C20.7562 33.0835 24.5166 34.7769 24.5166 34.7769Z" fill="#00CCFF"/>
<path d="M43.2684 35.0631C41.438 36.2086 39.4832 34.7767 39.4832 34.7767C39.4832 34.7767 43.2435 33.0708 44.8995 31.5518C44.9244 32.3486 44.7999 34.1043 43.2684 35.0631Z" fill="#FF4AF7"/>
<path d="M25.1767 34.7769C25.1767 34.7769 23.2218 36.2088 21.3915 35.0633C19.86 34.1045 19.723 32.3489 19.7604 31.5645C21.404 33.0835 25.1767 34.7769 25.1767 34.7769Z" fill="#FF4AF7"/>
<path d="M42.9322 35.0631C41.1018 36.2086 39.147 34.7767 39.147 34.7767C39.147 34.7767 42.9073 33.0708 44.5633 31.5518C44.6007 32.3486 44.4762 34.1043 42.9322 35.0631Z" fill="white"/>
<path d="M24.8403 34.7769C24.8403 34.7769 22.8854 36.2088 21.0551 35.0633C19.5236 34.1045 19.3866 32.3489 19.4239 31.5645C21.08 33.0835 24.8403 34.7769 24.8403 34.7769Z" fill="white"/>
<script xmlns=""/></svg>